<svg xmlns="http://www.w3.org/2000/svg" preserveAspectRatio="xMidYMid" width="46" height="41" viewBox="0 0 46 41"><defs><style>.cls-2{fill:#5bbc2e}</style></defs><path d="M45 30.703H29.082v7.25h1.29c.552 0 1 .458 1 1.023 0 .566-.448 1.024-1 1.024H15.624c-.553 0-1-.458-1-1.024 0-.565.447-1.023 1-1.023h1.29v-7.25H1c-.553 0-1-.458-1-1.023V1.025C0 .46.447 0 1 0h44c.553 0 1 .46 1 1.025V29.68c0 .565-.447 1.023-1 1.023zm-26.086 7.25h8.168v-7.25h-8.168v7.25zM44 2.048H2v26.61h42V2.048zM5 4.095h36c.553 0 1 .458 1 1.023v20.468c0 .566-.447 1.024-1 1.024H5c-.553 0-1-.458-1-1.024V5.118c0-.565.447-1.023 1-1.023zm0 20.468v1h36V5.143H5v19.42z" id="path-1" class="cls-2" fill-rule="evenodd"/></svg>