<svg xmlns="http://www.w3.org/2000/svg" preserveAspectRatio="xMidYMid" width="38" height="40" viewBox="0 0 38 40"><defs><style>.cls-2{fill:#5bbc2e}</style></defs><path d="M37.17 40.01H.84c-.462 0-.835-.394-.835-.88V.88C.005.392.378 0 .84 0h36.33c.462 0 .835.393.835.88v38.25c0 .486-.373.88-.834.88zm-.833-38.253H1.674v8.484h34.663V1.76zm0 10.24H1.674v26.255h34.663V11.998zm-22.72 12.365l3.536 3.033 7.12-9.274a.807.807 0 0 1 1.174-.13c.358.308.414.86.124 1.238l-7.644 9.96a.824.824 0 0 1-.65.325.807.807 0 0 1-.526-.196l-4.188-3.59a.91.91 0 0 1-.118-1.236.807.807 0 0 1 1.174-.125zM5.727 4.06c1.017 0 1.84.868 1.84 1.94 0 1.07-.823 1.938-1.84 1.938-1.017 0-1.842-.868-1.842-1.94 0-1.07.825-1.938 1.842-1.938zm5.3 0c1.018 0 1.843.868 1.843 1.94 0 1.07-.825 1.938-1.842 1.938-1.017 0-1.84-.868-1.84-1.94 0-1.07.823-1.938 1.84-1.938zm5.303 0c1.018 0 1.843.868 1.843 1.94 0 1.07-.825 1.938-1.843 1.938-1.017 0-1.843-.868-1.843-1.94 0-1.07.825-1.938 1.842-1.938z" id="path-1" class="cls-2" fill-rule="evenodd"/></svg>