<svg xmlns="http://www.w3.org/2000/svg" preserveAspectRatio="xMidYMid" width="26" height="40" viewBox="0 0 26 40"><defs><style>.cls-2{fill:#5bbc2e}</style></defs><path d="M25.133 40H.867A.868.868 0 0 1 0 39.13V.87C0 .39.388 0 .867 0h24.266c.48 0 .867.39.867.87v38.26c0 .48-.388.87-.867.87zm-.866-38.26H1.733v36.52h22.534V1.74zM4.333 5.797h17.334c.48 0 .866.39.866.87v22.026c0 .48-.387.87-.866.87H4.333a.867.867 0 0 1-.866-.87V6.668c0-.48.387-.87.866-.87zM5.2 27.824h15.6V7.537H5.2v20.287zm7.8 3.553c1.134 0 2.058.926 2.058 2.066 0 1.14-.924 2.065-2.058 2.065a2.062 2.062 0 0 1-2.058-2.065c0-1.14.92-2.066 2.058-2.066z" id="path-1" class="cls-2" fill-rule="evenodd"/></svg>