<svg xmlns="http://www.w3.org/2000/svg" preserveAspectRatio="xMidYMid" width="43" height="41" viewBox="0 0 43 41"><defs><style>.cls-2{fill:#5bbc2e}</style></defs><path d="M41.148 28.064h-2.224c-.124 0-.332.152-.37.27l-.436 1.084c-.083.174-.043.428.044.517l1.57 1.6c.722.734.722 1.93 0 2.663l-2.425 2.478c-.71.71-1.917.706-2.615.005l-1.576-1.603a.478.478 0 0 0-.306-.1c-.02.01-.18.046-.2.053l-1.002.42c-.176.063-.323.272-.323.4v2.262c0 1.04-.832 1.885-1.854 1.885H26c-1.02 0-1.85-.846-1.85-1.884V35.85c0-.127-.148-.336-.27-.378l-1.258-.495a.48.48 0 0 0-.305.098l-1.573 1.603c-.698.707-1.918.706-2.613.002l-2.434-2.48a1.878 1.878 0 0 1-.54-1.332c0-.502.19-.976.54-1.33l1.57-1.6c.088-.09.128-.344.073-.455l-.44-1.09c-.06-.174-.268-.326-.39-.326h-2.225c-1.02 0-1.85-.844-1.85-1.882v-3.5c0-1.04.83-1.885 1.85-1.885h2.223c.123 0 .332-.152.37-.27l.43-1.08c.085-.176.043-.434-.044-.523l-1.57-1.6a1.875 1.875 0 0 1-.54-1.33c0-.503.192-.977.542-1.33l2.427-2.478c.7-.71 1.92-.708 2.615-.004l1.572 1.602c.042.04.163.1.308.1.02-.01.18-.044.198-.05l1-.425c.182-.063.33-.27.33-.4V10.75c0-1.038.828-1.884 1.848-1.884h3.435c1.023 0 1.855.846 1.855 1.884v2.263c0 .125.148.338.265.378l1.26.498a.483.483 0 0 0 .305-.098l1.573-1.603c.708-.712 1.917-.706 2.615-.006l2.432 2.487c.346.352.54.826.54 1.33 0 .504-.194.978-.543 1.332l-1.568 1.6c-.086.085-.128.343-.073.454l.44 1.085c.064.177.27.33.396.33h2.224c1.016 0 1.845.845 1.845 1.883v3.502c0 1.038-.83 1.882-1.846 1.882zm-2.224-5.408c-.91 0-1.813-.663-2.1-1.54l-.393-.963c-.376-.764-.2-1.882.44-2.54l1.575-1.602-2.427-2.51-1.61 1.6c-.613.63-1.76.83-2.55.43l-.946-.4c-.8-.272-1.45-1.19-1.45-2.116V10.75L26 10.725l-.025 2.288c0 .926-.652 1.846-1.515 2.14l-.94.4c-.64.33-1.873.184-2.497-.455L19.45 13.5l-2.464 2.48 1.57 1.632c.643.66.82 1.777.413 2.604l-.384.957c-.268.82-1.17 1.483-2.08 1.483h-2.224l-.025 3.526 2.247.024c.91 0 1.813.662 2.102 1.54l.388.968c.38.762.2 1.88-.442 2.535l-1.57 1.6 2.43 2.51 1.606-1.6c.393-.404.99-.645 1.595-.645.342 0 .672.076.957.22l.942.395c.804.275 1.455 1.193 1.455 2.117v2.263l3.46.027c.013 0 .027-.015.027-.026v-2.26c0-.92.648-1.84 1.506-2.137l.946-.4c.63-.33 1.87-.186 2.495.453l1.57 1.6 2.465-2.48-1.57-1.634c-.644-.655-.82-1.773-.414-2.602l.385-.96c.267-.82 1.17-1.48 2.08-1.48h2.224l.02-3.526-2.245-.024zm-11.21 7.317c-3 0-5.438-2.486-5.438-5.542 0-3.054 2.44-5.54 5.438-5.54 3 0 5.44 2.486 5.44 5.543s-2.44 5.543-5.44 5.543zm0-9.227c-1.992 0-3.613 1.654-3.613 3.685 0 2.03 1.624 3.687 3.616 3.687 1.995 0 3.617-1.654 3.617-3.684 0-2.03-1.62-3.684-3.616-3.684zm11.734-18.89H.91c-.503 0-.91-.416-.91-.93s.408-.93.913-.93H39.45c.504 0 .912.415.912.93s-.408.93-.912.93zM.91 11.533h10.566a.92.92 0 0 1 .912.93.92.92 0 0 1-.912.928H.91a.92.92 0 0 1-.912-.93.92.92 0 0 1 .913-.926zm0 11.537h6.61c.505 0 .913.417.913.93a.92.92 0 0 1-.912.93H.91A.92.92 0 0 1 0 24c0-.513.408-.93.913-.93zm0 11.54h10.566c.504 0 .912.414.912.928 0 .513-.408.93-.912.93H.91a.92.92 0 0 1-.912-.93.92.92 0 0 1 .913-.93z" id="path-1" class="cls-2" fill-rule="evenodd"/></svg>