<svg xmlns="http://www.w3.org/2000/svg" preserveAspectRatio="xMidYMid" width="40" height="41" viewBox="0 0 40 41"><defs><style>.cls-2{fill:#5bbc2e}</style></defs><path d="M22.284 40.005h-4.57a2.138 2.138 0 0 1-2.133-2.136V34.91c0-.305-.284-.702-.575-.8l-1.39-.57c-.428-.208-.826-.073-1.026.128l-2.094 2.094c-.8.802-2.215.802-3.016 0L4.244 32.53a2.113 2.113 0 0 1-.625-1.508c0-.573.222-1.11.627-1.512l2.087-2.088c.21-.212.29-.702.157-.97l-.575-1.397c-.118-.346-.515-.63-.82-.63H2.138A2.14 2.14 0 0 1 .003 22.29v-4.572c0-1.177.958-2.136 2.135-2.136h2.958c.305 0 .702-.285.8-.576l.57-1.39c.162-.332.083-.815-.133-1.033l-2.088-2.088a2.115 2.115 0 0 1-.625-1.51c0-.572.223-1.108.628-1.51l3.23-3.232c.8-.804 2.215-.805 3.017 0l2.09 2.09c.203.203.716.285.97.158l1.39-.575c.35-.12.636-.514.636-.82V2.138A2.14 2.14 0 0 1 17.718 0h4.57c1.18 0 2.138.96 2.138 2.137v2.957c0 .305.284.7.574.797l1.39.577c.42.205.823.072 1.03-.133l2.087-2.09c.808-.805 2.214-.804 3.02 0l3.23 3.235c.4.4.624.935.624 1.51 0 .57-.223 1.11-.627 1.51l-2.087 2.087c-.214.216-.293.7-.157.972l.577 1.39c.118.35.514.633.82.633h2.96c1.174 0 2.13.96 2.13 2.136v4.57a2.135 2.135 0 0 1-2.13 2.135h-2.96c-.306 0-.702.283-.797.572l-.577 1.397c-.16.327-.08.817.13 1.03l2.09 2.09c.402.4.625.936.625 1.51a2.12 2.12 0 0 1-.628 1.51l-3.225 3.23c-.81.807-2.215.803-3.02.005l-2.09-2.094c-.206-.204-.716-.286-.972-.158l-1.39.577c-.348.118-.632.515-.632.82v2.955a2.14 2.14 0 0 1-2.14 2.134zm-9.062-8.333c.405 0 .794.087 1.128.254l1.275.524c.963.32 1.733 1.39 1.733 2.464v2.955c0 .195.16.355.357.355h4.57a.36.36 0 0 0 .36-.358V34.91c0-1.073.768-2.14 1.786-2.483l1.28-.53c.766-.39 2.234-.212 2.964.517l2.09 2.09c.177.176.327.18.51-.002L34.5 31.27a.346.346 0 0 0 .104-.25.35.35 0 0 0-.102-.25l-2.09-2.093c-.76-.762-.97-2.06-.49-3.023l.525-1.28c.315-.96 1.384-1.73 2.463-1.73h2.958a.36.36 0 0 0 .354-.357v-4.572a.362.362 0 0 0-.355-.358H34.91c-1.08 0-2.15-.77-2.486-1.792l-.53-1.275c-.453-.902-.243-2.2.513-2.962L34.5 9.236a.355.355 0 0 0 .002-.502L31.268 5.5c-.177-.18-.326-.18-.507 0l-2.086 2.09c-.732.73-2.093.957-3.022.492l-1.275-.527c-.96-.318-1.73-1.386-1.73-2.46v-2.96a.363.363 0 0 0-.36-.357h-4.57a.362.362 0 0 0-.356.357v2.957c0 1.076-.77 2.144-1.792 2.484l-1.274.53c-.767.392-2.24.21-2.965-.52L9.237 5.5c-.18-.18-.326-.178-.503 0L5.502 8.733a.357.357 0 0 0-.002.502l2.092 2.092c.76.764.97 2.063.49 3.022l-.522 1.275c-.322.964-1.39 1.733-2.464 1.733H2.138a.363.363 0 0 0-.358.357v4.572c0 .19.165.355.358.355h2.958c1.073 0 2.142.77 2.485 1.788l.53 1.282c.453.903.244 2.202-.515 2.962l-2.09 2.092a.346.346 0 0 0-.105.25c0 .056.012.16.1.25l3.235 3.237c.177.177.327.177.504 0l2.09-2.09c.46-.467 1.17-.746 1.892-.746zM20 26.917c-3.81 0-6.91-3.102-6.91-6.914s3.1-6.914 6.91-6.914 6.912 3.1 6.912 6.91-3.1 6.915-6.912 6.915zm0-12.05a5.138 5.138 0 0 0-5.13 5.136c0 2.832 2.3 5.136 5.13 5.136s5.135-2.307 5.135-5.14S22.83 14.867 20 14.867z" id="path-1" class="cls-2" fill-rule="evenodd"/></svg>