<svg xmlns="http://www.w3.org/2000/svg" preserveAspectRatio="xMidYMid" width="40" height="40" viewBox="0 0 40 40"><defs><style>.cls-2{fill:#5bbc2e}</style></defs><path d="M39.145 40.023H.88a.88.88 0 0 1-.88-.88V.88A.88.88 0 0 1 .88 0h38.265c.485 0 .878.394.878.88v38.264a.88.88 0 0 1-.878.88zm-.88-38.265H1.76v8.487h36.506V1.758zm0 10.244H1.76v26.263h36.506V12.002zM8.85 16.805a.878.878 0 0 1 1.242 0l6.375 6.382c.344.343.344.9 0 1.243l-6.375 6.375a.87.87 0 0 1-.62.257.878.878 0 0 1-.622-1.5l5.75-5.752-5.75-5.763a.878.878 0 0 1 0-1.243zm10.508 12.5H30.56a.88.88 0 1 1 0 1.757H19.357a.88.88 0 1 1 0-1.758zM6.03 4.062a1.94 1.94 0 1 1 0 3.88 1.94 1.94 0 0 1 0-3.88zm5.583 0a1.94 1.94 0 1 1 0 3.88 1.94 1.94 0 0 1 0-3.88zm5.583 0a1.94 1.94 0 1 1 .003 3.88 1.94 1.94 0 0 1-.004-3.88z" id="path-1" class="cls-2" fill-rule="evenodd"/></svg>